<svg xmlns="http://www.w3.org/2000/svg" viewBox="0 0 426.67117 671.72247"><defs><clipPath id="a"><path d="M10082.6 9928.44c-20.4-109.18-317.03-488.31-317.03-488.31s-227.28-235.84-305.96-46.32c-81.1 195.16 671.79 796.49 622.99 534.63z"/></clipPath><linearGradient x2="1" gradientUnits="userSpaceOnUse" gradientTransform="matrix(570.285,-60.7906,-60.7906,-570.285,9480.97,9690.61)" id="b"><stop offset="0"/><stop offset="1" stop-color="#182428"/></linearGradient><clipPath id="c"><path d="M9786.75 8663.52c-22.58 46.68-67.88 112.14 9.16 126.13 76.98 13.96 149.34-135.56 149.34-135.56l-158.5 9.43z"/></clipPath><linearGradient x2="1" gradientUnits="userSpaceOnUse" gradientTransform="matrix(-247.208,100.465,100.465,247.208,9975.87,8656.68)" id="d"><stop offset="0" stop-color="#f4cea8"/><stop offset=".454" stop-color="#edae87"/><stop offset="1" stop-color="#edae87"/></linearGradient><clipPath id="e"><path d="M9881.25 8537.99c-44.23 0-82.32 42.17-117.09 74.12-40.78 37.34-58.86 98.12 13.57 98.14 72.46-.08 86.03-37.43 86.03-37.43l27.19 14s-140.38 74.76-81.44 186.93c58.89 112.11 144.92 163.48 144.92 163.48s59.67-25.27 98.77-59.74c7.9-38.59 12.1-65.89 9.8-78.27-.6-2.81-1.1-5.74-1.6-8.78l-.1-.01-.7-4.69c-11.5-70.82-21.5-196.04-27.5-282.88-51.8-28.27-104.61-52.66-128.67-60.93-7.91-2.71-15.64-3.94-23.18-3.94"/></clipPath><linearGradient x2="1" gradientUnits="userSpaceOnUse" gradientTransform="matrix(-66.7868,-370.169,-370.169,66.7868,9998.32,8978.6)" id="f"><stop offset="0" stop-color="#f4cea8"/><stop offset=".643" stop-color="#f4cea8"/><stop offset=".788" stop-color="#f4cea8"/><stop offset="1" stop-color="#edae87"/></linearGradient><clipPath id="g"><path d="M9747.52 9389.48s250.43-307.86 277.88-341.56c-66.67-19.03-180.17-115.52-254.17-244.88-164.88 169.34-332.03 564.71-317.15 633.92 74.83 217.83 293.44-47.48 293.44-47.48z"/></clipPath><linearGradient x2="1" gradientUnits="userSpaceOnUse" gradientTransform="matrix(606.147,-64.6134,-64.6134,-606.147,9427.33,9187.91)" id="h"><stop offset="0"/><stop offset="1" stop-color="#182428"/></linearGradient><clipPath id="i"><path d="M11716.6 9928.44c20.3-109.18 317-488.31 317-488.31s227.3-235.84 306-46.32c81.1 195.16-671.8 796.49-623 534.63z"/></clipPath><linearGradient x2="1" gradientUnits="userSpaceOnUse" gradientTransform="matrix(-570.304,-60.7927,60.7927,-570.304,12318.2,9690.61)" id="j"><stop offset="0"/><stop offset="1" stop-color="#182428"/></linearGradient><clipPath id="k"><path d="M11492.1 7410.96h-295.7l-68.6 1152.13c-.9 17.37-26.1 31.26-56.8 31.26v37.06c117.9-58.93 295.6-104.02 504.4-119.35l-83.3-1101.1"/></clipPath><linearGradient x2="1" gradientUnits="userSpaceOnUse" gradientTransform="matrix(521.729,0,0,-521.729,11071,8199.2)" id="l"><stop offset="0" stop-color="#757575"/><stop offset=".441" stop-color="#757575"/><stop offset="1" stop-color="#ccc"/></linearGradient><clipPath id="m"><path d="M10690.1 7410.96h-295.7l-83.4 1102.3c214.1 16.44 390.5 59.9 504.5 118.24v-37.15c-30.7 0-55.9-13.89-56.8-31.26l-68.6-1152.13"/></clipPath><linearGradient x2="1" gradientUnits="userSpaceOnUse" gradientTransform="matrix(-521.729,0,0,-521.729,10815.5,8199.2)" id="n"><stop offset="0" stop-color="#757575"/><stop offset=".441" stop-color="#757575"/><stop offset="1" stop-color="#ccc"/></linearGradient><clipPath id="o"><path d="M10218.7 8768.77c0-92.72 14.6-265.66 191.4-290.43 176.8-24.8 860.7-17.72 994.1 0 133.3 17.72 209.9 134.58 215 290.43h-1400.5z"/></clipPath><linearGradient x2="1" gradientUnits="userSpaceOnUse" gradientTransform="matrix(1400.53,0,0,-1400.53,10218.7,8615.53)" id="p"><stop offset="0" stop-color="#757575"/><stop offset=".441" stop-color="#757575"/><stop offset="1" stop-color="#ccc"/></linearGradient><clipPath id="q"><path d="M10723 9114.04s74.1 175.45 86.3 233.94c18.9 91.1 38.2 364.38 38.2 364.38.5 2.09 2.2 3.65 4.5 3.91l52.6 6.16c1 1.2 2.5 2.12 4.2 2.12h.1l.6-.14 6.2-.78 6.2.76.6.02c1.2 0 2.5-.45 3.4-1.23l.7-.84 52.7-6.07c2.3-.26 4-1.82 4.5-3.91 0 0 70.1-272.26 88.3-364.25 11.5-58.05 36.2-234.07 36.2-234.07.3-1.52-.2-3.1-1.3-4.25l-200.3-194.56c-1-.99-182.4 194.56-182.4 194.56-1.1 1.19-1.6 2.73-1.3 4.25z"/></clipPath><linearGradient x2="1" gradientUnits="userSpaceOnUse" gradientTransform="matrix(385.43,0,0,-385.43,10722.9,9319.89)" id="r"><stop offset="0" stop-color="#d72821"/><stop offset="1" stop-color="#f15a24"/></linearGradient><clipPath id="s"><path d="M11050.1 9836.17l18.3-56.91s-61.7-70.75-62.5-76.23c-.8-5.49-18.3-4.77-18.3-4.77H10844.2s-17.2-.72-18.1 4.77c-.7 5.48-62.3 76.05-62.3 76.05l19.2 57.5c54.9-.7 208.8-.88 267.1-.41z"/></clipPath><linearGradient x2="1" gradientUnits="userSpaceOnUse" gradientTransform="matrix(304.648,0,0,-304.648,10763.8,9767.41)" id="t"><stop offset="0" stop-color="#d72821"/><stop offset="1" stop-color="#f15a24"/></linearGradient><clipPath id="u"><path d="M10118.8 8506.07c-30.1 0-60.7.51-91.8 1.55 0 0 2.3 39.8 6.1 95.24 6 86.84 16 212.06 27.5 282.88l-7.6-56.34 338.1 28.08-7.1 55.37-322.6-22.41c.5 3.04 1 5.97 1.6 8.78 2.3 12.38-1.9 39.68-9.8 78.27-37.5 182.59-160.22 618-90.79 923.29 23.4 102.92 176.89 133.02 323.29 139.62 84.6-72.71 188.6-128.99 298.1-167.77 23.7-59.34 51.1-129.26 78-200.25 65.3-171.95 127.4-350.15 125.2-399.33 0 .4.1.59.4.59 7.9 0 126.7-185.05 126.7-185.05s1-2.16 2.6-6.19c-13.8-33.86-79.8-214.79 20.8-348.47-8.6-15.73-19.5-30.2-33.3-42.94-.4-.32-.7-.63-1-.95-22.7-20.71-52.2-40.35-87.7-58.54-114-58.34-290.4-101.8-504.5-118.24-61.2-4.7-125.4-7.19-192.2-7.19"/></clipPath><linearGradient x2="1" gradientUnits="userSpaceOnUse" gradientTransform="matrix(895,0,0,-895,10035.4,9274.01)" id="v"><stop offset="0"/><stop offset="1" stop-color="#182428"/></linearGradient><clipPath id="w"><path d="M10532.2 10085.6l-111.9-35.8s-88.2-285.14-94.5-312.22l204-15.72-116.5-120.18s428.2-409.3 500-510.78l-381.1 994.7z"/></clipPath><linearGradient x2="1" gradientUnits="userSpaceOnUse" gradientTransform="matrix(-610.39,-16.316,-18.7471,-541.128,10930.7,9593.82)" id="x"><stop offset="0" stop-color="#757575"/><stop offset=".441" stop-color="#757575"/><stop offset="1" stop-color="#ccc"/></linearGradient><clipPath id="y"><path d="M10060.6 8885.74l.7 4.69.1.01c-.3-1.54-.5-3.11-.8-4.7"/></clipPath><linearGradient x2="1" gradientUnits="userSpaceOnUse" gradientTransform="matrix(-66.7868,-370.169,-370.169,66.7868,9998.32,8978.6)" id="z"><stop offset="0" stop-color="#f5d3b1"/><stop offset=".643" stop-color="#f5d3b1"/><stop offset=".788" stop-color="#f5d3b1"/><stop offset="1" stop-color="#efb693"/></linearGradient><clipPath id="A"><path d="M10053 8829.4l7.6 56.34c.3 1.59.5 3.16.8 4.7l322.6 22.41 7.1-55.37-338.1-28.08"/></clipPath><linearGradient x2="1" gradientUnits="userSpaceOnUse" gradientTransform="matrix(895,0,0,-895,10035.4,9274.01)" id="B"><stop offset="0" stop-color="#1a1a1a"/><stop offset="1" stop-color="#303a3e"/></linearGradient><clipPath id="C"><path d="M11732.1 8506.38c-53.8 0-106.1 1.97-156.7 5.68-208.8 15.33-386.5 60.42-504.4 119.35-37 18.52-68.1 38.4-92.5 59.15-.8.75-1.7 1.5-2.6 2.24-14.9 13.01-27.6 26.8-38.4 41.13-100.6 133.68-34.6 314.61-20.8 348.47 1.5 3.64 2.3 5.59 2.3 5.59s119 185.65 126.9 185.65c.3 0 .4-.2.5-.59-2.4 51.62 66.2 245.33 134.8 424.8 21.5 56.32 43 111.25 62.4 159.93 124 38.6 243.8 99.61 340.2 180.52 134.6-9.9 265.6-43.11 287.1-137.52 84.1-369.82-113.7-930.58-100.5-1001.56.5-2.81 1-5.74 1.5-8.78l-322.6 22.41-7.1-55.37 338.1-28.08-7.6 56.36c18.9-116.01 33.6-378.14 33.6-378.14-25-.84-49.8-1.24-74.2-1.24"/></clipPath><linearGradient x2="1" gradientUnits="userSpaceOnUse" gradientTransform="matrix(875.514,0,0,-875.514,10875.4,9274.16)" id="D"><stop offset="0"/><stop offset="1" stop-color="#182428"/></linearGradient><clipPath id="E"><path d="M11301.1 10085.6l111.9-35.8s88.2-285.14 94.5-312.22l-204-15.72 116.5-120.18s-428.2-409.3-499.9-510.78l381 994.7z"/></clipPath><linearGradient x2="1" gradientUnits="userSpaceOnUse" gradientTransform="matrix(610.39,-16.316,18.7471,-541.128,10902.6,9593.83)" id="F"><stop offset="0" stop-color="#757575"/><stop offset=".441" stop-color="#757575"/><stop offset="1" stop-color="#ccc"/></linearGradient><clipPath id="G"><path d="M11780.3 8829.4l-338.1 28.08 7.1 55.37 322.6-22.41c.3-1.53.5-3.09.8-4.68l7.6-56.36"/></clipPath><linearGradient x2="1" gradientUnits="userSpaceOnUse" gradientTransform="matrix(875.514,0,0,-875.514,10875.4,9274.16)" id="H"><stop offset="0" stop-color="#1a1a1a"/><stop offset="1" stop-color="#303a3e"/></linearGradient><clipPath id="I"><path d="M10939.2 9809.4c-44.4 0-90.4 3.29-137.1 9.8-72.5 10.13-146.6 28.03-218.3 53.43-109.5 38.78-213.5 95.06-298.1 167.77-122.2 105-204.1 244.3-204.1 414.8-19.2-21.8-42.7-36.1-69.6-40.5-5.7-.9-11.2-1.3-16.6-1.3-89.72 0-138.03 126-172.11 288.5-36.12 172.1-42.58 320 57.87 336.3 5.87 1 11.77 1.5 17.7 1.5 22.55 0 45.37-6.8 67.52-19.4 16.4 536.2 142.92 1080.4 972.82 1080.4 790.7 0 959.7-547.3 973.1-1086.3 25.1 16.3 51.4 25.3 77.2 25.3 5.9 0 11.8-.5 17.7-1.5 100.4-16.3 108.3-164.2 72.2-336.3-34.1-162.5-95.1-288.5-186.3-288.5-5.5 0-11 .4-16.7 1.3-30.1 4.9-55.9 22.2-76.3 48.6 0-173.2-87.3-316.9-216.3-425-96.4-80.91-216.2-141.92-340.2-180.52-72.8-22.65-147-37.59-218.9-44.31-29-2.7-57.5-4.07-85.5-4.07m737.9 1013.5c-80.1 0-144.9-35.7-145.4-80.4-.5-45.3 65.1-82.7 146.6-83.6 1-.1 2-.1 3-.1 80.1 0 144.8 35.7 145.3 80.5.5 45.3-65.1 82.7-146.5 83.6h-3m-1460.1 0c-80.1 0-144.9-35.7-145.4-80.4-.5-45.3 65.1-82.7 146.6-83.6 1-.1 2-.1 3-.1 80.1 0 144.9 35.7 145.3 80.5.5 45.3-65.1 82.7-146.5 83.6h-3"/></clipPath><radialGradient fx="0" fy="0" cx="0" cy="0" r="1" gradientUnits="userSpaceOnUse" gradientTransform="matrix(1147.82,0,0,-1147.82,10949.1,10955.1)" spreadMethod="pad" id="J"><stop offset="0" stop-color="#f4cea8"/><stop offset=".643" stop-color="#f4cea8"/><stop offset=".788" stop-color="#f4cea8"/><stop offset="1" stop-color="#edae87"/></radialGradient><clipPath id="K"><path d="M11681.3 10658.8c-1 0-2 0-3 .1-81.5.9-147.1 38.3-146.6 83.6.5 44.7 65.3 80.4 145.4 80.4h3c81.4-.9 147-38.3 146.5-83.6-.5-44.8-65.2-80.5-145.3-80.5"/></clipPath><radialGradient fx="0" fy="0" cx="0" cy="0" r="1" gradientUnits="userSpaceOnUse" gradientTransform="matrix(1147.82,0,0,-1147.82,10949.1,10955.1)" spreadMethod="pad" id="L"><stop offset="0" stop-color="#f1c0a1"/><stop offset=".643" stop-color="#f1c0a1"/><stop offset=".788" stop-color="#f1c0a1"/><stop offset="1" stop-color="#eeb091"/></radialGradient><clipPath id="M"><path d="M10221.2 10658.8c-1 0-2 0-3 .1-81.5.9-147.1 38.3-146.6 83.6.5 44.7 65.3 80.4 145.4 80.4h3c81.4-.9 147-38.3 146.5-83.6-.4-44.8-65.2-80.5-145.3-80.5"/></clipPath><radialGradient fx="0" fy="0" cx="0" cy="0" r="1" gradientUnits="userSpaceOnUse" gradientTransform="matrix(1147.82,0,0,-1147.82,10949.1,10955.1)" spreadMethod="pad" id="N"><stop offset="0" stop-color="#f1c0a1"/><stop offset=".643" stop-color="#f1c0a1"/><stop offset=".788" stop-color="#f1c0a1"/><stop offset="1" stop-color="#eeb091"/></radialGradient><clipPath id="O"><path d="M10381.3 11292.1c-22.8-52 107-13.2 220.3-62.7 113.3-49.6 167.1-168.9 189.9-116.8 22.7 52-32 176.8-145.4 226.4-113.2 49.5-242.1 5.2-264.8-46.9z"/></clipPath><linearGradient x2="1" gradientUnits="userSpaceOnUse" gradientTransform="matrix(413.491,-171.691,-171.691,-413.491,10403.8,11346.4)" id="P"><stop offset="0" stop-color="#75452f"/><stop offset=".441" stop-color="#4b2a19"/><stop offset="1" stop-color="#4b2a19"/></linearGradient><clipPath id="Q"><path d="M11522.8 11292.1c22.8-52-107-13.2-220.3-62.7-113.2-49.6-167.1-168.9-189.9-116.8-22.7 52 32.1 176.8 145.4 226.4 113.2 49.5 242.1 5.2 264.8-46.9z"/></clipPath><linearGradient x2="1" gradientUnits="userSpaceOnUse" gradientTransform="matrix(-413.473,-171.684,171.684,-413.473,11500.3,11346.4)" id="R"><stop offset="0" stop-color="#75452f"/><stop offset=".441" stop-color="#4b2a19"/><stop offset="1" stop-color="#4b2a19"/></linearGradient><clipPath id="S"><path d="M10686.6 10983.7c0-65.3-52.9-118.2-118.2-118.2-65.3 0-118.3 52.9-118.3 118.2 0 65.3 53 118.2 118.3 118.2s118.2-52.9 118.2-118.2z"/></clipPath><linearGradient x2="1" gradientUnits="userSpaceOnUse" gradientTransform="matrix(236.445,0,0,-236.445,10450.1,10983.7)" id="T"><stop offset="0" stop-color="#171919"/><stop offset="1" stop-color="#474747"/></linearGradient><clipPath id="U"><path d="M11467.2 10983.7c0-65.3-53-118.2-118.3-118.2s-118.2 52.9-118.2 118.2c0 65.3 52.9 118.2 118.2 118.2 65.3 0 118.3-52.9 118.3-118.2z"/></clipPath><linearGradient x2="1" gradientUnits="userSpaceOnUse" gradientTransform="matrix(236.465,0,0,-236.465,11230.7,10983.7)" id="V"><stop offset="0" stop-color="#171919"/><stop offset="1" stop-color="#474747"/></linearGradient><clipPath id="W"><path d="M12141.2 11664.2c-36.7 145.6-88.9 244.6-132 307.1-42.7 62.1-101.3 107.3-101.3 107.3s29.4 20.5 112.2 13.2c-90.4 48.1-167.5-5.9-167.5-5.9l-160.9-291.9s80.4-83.3 62.1-291.7c-4.3-48.5 6.1-79.5 12.9-92.2 11.4-21.2 21.5-42.5 30.6-63.8 7.1-16.6 49-59 55.3-94.9 8.9-49.9 17.1-122.4 15-212.6-4.4-180.3-12-223.6-12-223.6l30.5 38.5s-1.1 72.4 18.4 130.2c12.9 34.1 35.1 55.7 74.8 50.8 7.3 225.9 183.8 456 161.9 629.5z"/></clipPath><radialGradient fx="0" fy="0" cx="0" cy="0" r="1" gradientUnits="userSpaceOnUse" gradientTransform="matrix(578.289,0,0,-637.91,11925.1,12009.2)" spreadMethod="pad" id="X"><stop offset="0" stop-color="#75452f"/><stop offset=".032" stop-color="#75452f"/><stop offset=".355" stop-color="#4b2a19"/><stop offset="1" stop-color="#4b2a19"/></radialGradient><clipPath id="Y"><path d="M9752.54 11664.2c36.69 145.6 88.93 244.6 131.94 307.1 42.78 62.1 101.37 107.3 101.37 107.3s-29.44 20.5-112.21 13.2c90.42 48.1 167.56 24.1 167.56 24.1l99-203s-41.3-117.3-19.8-385c8.8-110.2-72.9-240.6-79.3-276.5-8.8-49.9-17.1-122.4-14.9-212.6 4.4-180.3 12-223.6 12-223.6l-30.5 38.5s1 72.4-18.43 130.2c-12.9 34.1-43.85 56.1-74.96 49.9-7.31 225.8-183.69 456.9-161.77 630.4z"/></clipPath><radialGradient fx="0" fy="0" cx="0" cy="0" r="1" gradientUnits="userSpaceOnUse" gradientTransform="matrix(-577.531,0,0,-637.074,9938.81,11716.2)" spreadMethod="pad" id="Z"><stop offset="0" stop-color="#75452f"/><stop offset=".032" stop-color="#75452f"/><stop offset=".355" stop-color="#4b2a19"/><stop offset="1" stop-color="#4b2a19"/></radialGradient><clipPath id="aa"><path d="M9795.87 12552.3s146.24-239.4 830.23-140.5c684 98.9 905.7 192.6 1165.2-265.4-13.2 113.7-115.5 236.4-115.5 236.4s135.1-82.9 176.8-296.9c-20.7-113.1-160.9-291.9-160.9-291.9s-52.2 87.4-290.2 1c-89-32.3-243.2-212.5-544.7-279.5-662.5-1-1188.31 292.7-1060.93 1036.8z"/></clipPath><radialGradient fx="0" fy="0" cx="0" cy="0" r="1" gradientUnits="userSpaceOnUse" gradientTransform="matrix(822.695,0,0,-907.515,10849.8,12230.4)" spreadMethod="pad" id="ab"><stop offset="0" stop-color="#75452f"/><stop offset=".364" stop-color="#75452f"/><stop offset=".521" stop-color="#75452f"/><stop offset="1" stop-color="#4b2a19"/></radialGradient><clipPath id="ac"><path d="M10680.2 12357.9s111.8 10 245.2 29.2c99.4 14.2 211.3 37.8 295.3 43.1 196.8 12.4 348.7-52.3 453.3-211.7-99.6 67.2-189.3 77.2-189.3 77.2s99.6-65.8 164.4-162.4c-87.2 22.9-186.8 30.4-186.8 30.4l107.1-52.3-137-19.5s112.1 4.5 211.7-45.3c-144.4 5-224.2-27.3-224.2-27.3s92.2-.1 164.4-32.4c-121.1 5.8-247.7-22.7-347.7-54.5-111.8-35.5-240-89-310.7-102.4-87.3-16.6-206.5-32.3-302.9-20 129.5 27.4 306.3 119.6 306.3 119.6h-159.4l168.2 60.4s-208-18.1-369.9 29.3c276.4 22.3 381.4 62.2 381.4 62.2l-294.2 10.4s211.1 58.1 294.2 121.6c-164.5 1-346.5 34.9-346.5 34.9s248 20.8 346.5 79.7c-143.4-7-269.4 29.8-269.4 29.8z"/></clipPath><radialGradient fx="0" fy="0" cx="0" cy="0" r="1" gradientUnits="userSpaceOnUse" gradientTransform="matrix(2442.51,0,0,-2442.51,10281.2,12529.5)" spreadMethod="pad" id="ad"><stop offset="0" stop-color="#a96b46"/><stop offset="1" stop-color="#4b2713"/></radialGradient><clipPath id="ae"><path d="M10721.7 7221.33c0 41.54-1.7 147.03-19.4 229.33-186.6 54.75-326.9 18.56-337.1-43.73-69.2-44.12-206-121.15-157.7-187.26l514.2 1.66z"/></clipPath><linearGradient x2="1" gradientUnits="userSpaceOnUse" gradientTransform="matrix(16.3968,-206.644,-206.644,-16.3968,10445.5,7443.07)" id="af"><stop offset="0"/><stop offset="1" stop-color="#182428"/></linearGradient><clipPath id="ag"><path d="M10711.7 7221.33c-12.3 126.68-56.5 209.76-80.6 231.37-72.8 31.44-187.7 35.76-245.2 8.28 0 0-13.2-25.34-30.7-54.05-69.2-44.12-206-121.15-157.6-187.26l514.1 1.66z"/></clipPath><linearGradient x2="1" gradientUnits="userSpaceOnUse" gradientTransform="matrix(524.258,0,0,-524.258,10187.5,7349.42)" id="ah"><stop offset="0"/><stop offset="1" stop-color="#182428"/></linearGradient><clipPath id="ai"><path d="M10735.3 7201.04c0-12.45-10.1-22.52-22.5-22.52h-516.5c-12.4 0-22.5 10.07-22.5 22.52 0 12.44 10.1 22.53 22.5 22.53h516.5c12.4 0 22.5-10.09 22.5-22.53z"/></clipPath><linearGradient x2="1" gradientUnits="userSpaceOnUse" gradientTransform="matrix(561.494,0,0,-561.494,10173.8,7201.04)" id="aj"><stop offset="0" stop-color="#1d1d1d"/><stop offset="1" stop-color="#565656"/></linearGradient><clipPath id="ak"><path d="M10627.4 7413.14c-3.2 12.86-7.2 25.38-10.9 37.97-20.6 7.64-43.4 13.89-68 18.15-63.8 11.05-123.1 6.11-160.6-10.47-5.6-12.44-10.9-25.02-15.7-37.72 35.6 22.44 105.9 22.76 178.5 10.18 30-5.2 56.3-14.71 78.6-26.49-1.2 5.63-1.2 5.63-1.9 8.38z"/></clipPath><linearGradient x2="1" gradientUnits="userSpaceOnUse" gradientTransform="matrix(257.061,0,0,-257.061,10372.2,7439.97)" id="al"><stop offset="0" stop-color="#757575"/><stop offset=".441" stop-color="#757575"/><stop offset="1" stop-color="#ccc"/></linearGradient><clipPath id="am"><path d="M10632 7399.37c-20.5 7.66-73.2 19.5-97.8 23.74-63.7 11.05-128.3 7.12-165.9-9.44l-19.8-19.78c35.6 22.42 217.6 12.09 293.4-29.67 2.4 6.31-9.9 35.15-9.9 35.15z"/></clipPath><linearGradient x2="1" gradientUnits="userSpaceOnUse" gradientTransform="matrix(293.682,0,0,-293.682,10348.5,7396.78)" id="an"><stop offset="0" stop-color="#757575"/><stop offset=".441" stop-color="#757575"/><stop offset="1" stop-color="#ccc"/></linearGradient><clipPath id="ao"><path d="M11171 7221.33c0 41.54 1.7 147.03 19.4 229.33 186.6 54.75 327 18.56 337.1-43.73 69.2-44.12 206-121.15 157.7-187.26l-514.2 1.66z"/></clipPath><linearGradient x2="1" gradientUnits="userSpaceOnUse" gradientTransform="matrix(-16.3968,-206.644,206.644,-16.3968,11447.2,7443.07)" id="ap"><stop offset="0"/><stop offset="1" stop-color="#182428"/></linearGradient><clipPath id="aq"><path d="M11181 7221.33c12.3 126.68 56.5 209.76 80.6 231.37 72.8 31.44 187.7 35.76 245.2 8.28 0 0 13.2-25.34 30.7-54.05 69.2-44.12 206-121.15 157.6-187.26l-514.1 1.66z"/></clipPath><linearGradient x2="1" gradientUnits="userSpaceOnUse" gradientTransform="matrix(-524.258,0,0,-524.258,11705.3,7349.42)" id="ar"><stop offset="0"/><stop offset="1" stop-color="#182428"/></linearGradient><clipPath id="as"><path d="M11157.4 7201.04c0-12.45 10.1-22.52 22.5-22.52h516.5c12.4 0 22.5 10.07 22.5 22.52 0 12.44-10.1 22.53-22.5 22.53h-516.5c-12.4 0-22.5-10.09-22.5-22.53z"/></clipPath><linearGradient x2="1" gradientUnits="userSpaceOnUse" gradientTransform="matrix(-561.494,0,0,-561.494,11718.9,7201.04)" id="at"><stop offset="0" stop-color="#1d1d1d"/><stop offset="1" stop-color="#565656"/></linearGradient><clipPath id="au"><path d="M11265.3 7413.14c3.2 12.86 7.2 25.38 10.9 37.97 20.6 7.64 43.4 13.89 68 18.15 63.8 11.05 123.1 6.11 160.7-10.47 5.5-12.44 10.8-25.02 15.6-37.72-35.6 22.44-105.9 22.76-178.5 10.18-30-5.2-56.3-14.71-78.6-26.49 1.2 5.63 1.2 5.63 1.9 8.38z"/></clipPath><linearGradient x2="1" gradientUnits="userSpaceOnUse" gradientTransform="matrix(-257.061,0,0,-257.061,11520.5,7439.97)" id="av"><stop offset="0" stop-color="#757575"/><stop offset=".441" stop-color="#757575"/><stop offset="1" stop-color="#ccc"/></linearGradient><clipPath id="aw"><path d="M11260.7 7399.37c20.5 7.66 73.2 19.5 97.8 23.74 63.7 11.05 128.3 7.12 165.9-9.44l19.8-19.78c-35.6 22.42-217.6 12.09-293.4-29.67-2.4 6.31 9.9 35.15 9.9 35.15z"/></clipPath><linearGradient x2="1" gradientUnits="userSpaceOnUse" gradientTransform="matrix(-293.682,0,0,-293.682,11544.2,7396.78)" id="ax"><stop offset="0" stop-color="#757575"/><stop offset=".441" stop-color="#757575"/><stop offset="1" stop-color="#ccc"/></linearGradient><clipPath id="ay"><path d="M10686.6 10983.7c0-65.3-52.9-118.2-118.2-118.2-65.3 0-118.3 52.9-118.3 118.2 0 65.3 53 118.2 118.3 118.2s118.2-52.9 118.2-118.2z"/></clipPath><linearGradient x2="1" gradientUnits="userSpaceOnUse" gradientTransform="matrix(236.445,0,0,-236.445,10450.1,10983.7)" id="az"><stop offset="0" stop-color="#171919"/><stop offset="1" stop-color="#474747"/></linearGradient><clipPath id="aA"><path d="M11467.2 10983.7c0-65.3-53-118.2-118.3-118.2s-118.2 52.9-118.2 118.2c0 65.3 52.9 118.2 118.2 118.2 65.3 0 118.3-52.9 118.3-118.2z"/></clipPath><linearGradient x2="1" gradientUnits="userSpaceOnUse" gradientTransform="matrix(236.465,0,0,-236.465,11230.7,10983.7)" id="aB"><stop offset="0" stop-color="#171919"/><stop offset="1" stop-color="#474747"/></linearGradient><clipPath id="aC"><path d="M12391.3 9509.71c-42.6 54.96 96.7 503.39 103.4 582.19 6.7 78.8 227.4 1 192.9-165.26-32.2-113.32-49.5-180.02-49.5-180.02s-11.7-177.07-55.9-264.33c-44.2-87.31-72.1-125.51-190.9 27.42z"/></clipPath><linearGradient x2="1" gradientUnits="userSpaceOnUse" gradientTransform="matrix(307.988,0,0,-307.988,12383.3,9764.35)" id="aD"><stop offset="0" stop-color="#f4cea8"/><stop offset=".206" stop-color="#f4cea8"/><stop offset=".529" stop-color="#f4cea8"/><stop offset="1" stop-color="#edae87"/></linearGradient><clipPath id="aE"><path d="M12565.5 9384.06c-29.7 50.61 135.7 410.26 149.8 475.39 14.2 65.1 190.2-23.92 143.3-159.16-39.3-91.19-61.1-145.09-61.1-145.09s-29-146.72-75.5-214.85c-46.4-68.12-73.8-97.03-156.5 43.71z"/></clipPath><linearGradient x2="1" gradientUnits="userSpaceOnUse" gradientTransform="matrix(304.521,0,0,-304.521,12562,9582.5)" id="aF"><stop offset="0" stop-color="#f4cea8"/><stop offset=".206" stop-color="#f4cea8"/><stop offset=".529" stop-color="#f4cea8"/><stop offset="1" stop-color="#edae87"/></linearGradient><clipPath id="aG"><path d="M12116.6 9562.6c38.7 63.42 147.9 627.3 165.1 753.6 134.9-8.9 279.2-109.7 203.6-306.1-75.6-196.45-42.5-325.41-140.1-569.61-97.7-244.08-228.6 122.11-228.6 122.11z"/></clipPath><linearGradient x2="1" gradientUnits="userSpaceOnUse" gradientTransform="matrix(389.531,0,0,-389.531,12116.6,9836.38)" id="aH"><stop offset="0" stop-color="#f4cea8"/><stop offset=".206" stop-color="#f4cea8"/><stop offset=".529" stop-color="#f4cea8"/><stop offset="1" stop-color="#edae87"/></linearGradient><clipPath id="aI"><path d="M12283.9 8769.51c-276.6 3.24-404 423.89-356 805.02 48.1 381.11 56.3 734.67 52.5 753.07-3.8 18.5 266.7 51 251.8-183.5-12.8-156.85-39-205.68-39-205.68s3.4-235.43-18.9-302.74c73.4-4.66 653.3-8.06 556.9-558.24-50.7-289.37-240-310.41-447.3-307.93z"/></clipPath><linearGradient x2="1" gradientUnits="userSpaceOnUse" gradientTransform="matrix(823.984,0,0,-823.984,11918,9554.9)" id="aJ"><stop offset="0" stop-color="#f4cea8"/><stop offset=".206" stop-color="#f4cea8"/><stop offset=".529" stop-color="#f4cea8"/><stop offset="1" stop-color="#edae87"/></linearGradient><clipPath id="aK"><path d="M12283.9 8769.51c-147.5.45-398.7 70.39-510.3 408.2-111.5 337.82-180.7 376.2-247.4 445.77-13.5 121.93 164.9 320.89 362.9 62.22 138.5-193.2 53.2-300.43 53.2-300.43s713.7-69.53 341.6-615.76z"/></clipPath><linearGradient x2="1" gradientUnits="userSpaceOnUse" gradientTransform="matrix(865.879,0,0,-865.879,11525.5,9290.8)" id="aL"><stop offset="0" stop-color="#f4cea8"/><stop offset=".206" stop-color="#f4cea8"/><stop offset=".529" stop-color="#f4cea8"/><stop offset="1" stop-color="#edae87"/></linearGradient></defs><g clip-path="url(#a)" transform="matrix(1.25,0,0,-1.25,-1181.6443,1569.0375) scale(0.1,0.1)"><path d="M10082.6 9928.44c-20.4-109.18-317.03-488.31-317.03-488.31s-227.28-235.84-305.96-46.32c-81.1 195.16 671.79 796.49 622.99 534.63" fill="url(#b)"/></g><g clip-path="url(#c)" transform="matrix(1.25,0,0,-1.25,-1181.6443,1569.0375) scale(0.1,0.1)"><path d="M9786.75 8663.52c-22.58 46.68-67.88 112.14 9.16 126.13 76.98 13.96 149.34-135.56 149.34-135.56l-158.5 9.43" fill="url(#d)"/></g><g clip-path="url(#e)" transform="matrix(1.25,0,0,-1.25,-1181.6443,1569.0375) scale(0.1,0.1)"><path d="M9881.25 8537.99c-44.23 0-82.32 42.17-117.09 74.12-40.78 37.34-58.86 98.12 13.57 98.14 72.46-.08 86.03-37.43 86.03-37.43l27.19 14s-140.38 74.76-81.44 186.93c58.89 112.11 144.92 163.48 144.92 163.48s59.67-25.27 98.77-59.74c7.9-38.59 12.1-65.89 9.8-78.27-.6-2.81-1.1-5.74-1.6-8.78l-.1-.01-.7-4.69c-11.5-70.82-21.5-196.04-27.5-282.88-51.8-28.27-104.61-52.66-128.67-60.93-7.91-2.71-15.64-3.94-23.18-3.94" fill="url(#f)"/></g><g clip-path="url(#g)" transform="matrix(1.25,0,0,-1.25,-1181.6443,1569.0375) scale(0.1,0.1)"><path d="M9747.52 9389.48s250.43-307.86 277.88-341.56c-66.67-19.03-180.17-115.52-254.17-244.88-164.88 169.34-332.03 564.71-317.15 633.92 74.83 217.83 293.44-47.48 293.44-47.48" fill="url(#h)"/></g><g clip-path="url(#i)" transform="matrix(1.25,0,0,-1.25,-1181.6443,1569.0375) scale(0.1,0.1)"><path d="M11716.6 9928.44c20.3-109.18 317-488.31 317-488.31s227.3-235.84 306-46.32c81.1 195.16-671.8 796.49-623 534.63" fill="url(#j)"/></g><g clip-path="url(#k)" transform="matrix(1.25,0,0,-1.25,-1181.6443,1569.0375) scale(0.1,0.1)"><path d="M11492.1 7410.96h-295.7l-68.6 1152.13c-.9 17.37-26.1 31.26-56.8 31.26v37.06c117.9-58.93 295.6-104.02 504.4-119.35l-83.3-1101.1" fill="url(#l)"/></g><g clip-path="url(#m)" transform="matrix(1.25,0,0,-1.25,-1181.6443,1569.0375) scale(0.1,0.1)"><path d="M10690.1 7410.96h-295.7l-83.4 1102.3c214.1 16.44 390.5 59.9 504.5 118.24v-37.15c-30.7 0-55.9-13.89-56.8-31.26l-68.6-1152.13" fill="url(#n)"/></g><g clip-path="url(#o)" transform="matrix(1.25,0,0,-1.25,-1181.6443,1569.0375) scale(0.1,0.1)"><path d="M10218.7 8768.77c0-92.72 14.6-265.66 191.4-290.43 176.8-24.8 860.7-17.72 994.1 0 133.3 17.72 209.9 134.58 215 290.43h-1400.5" fill="url(#p)"/></g><path d="M170.293 489.804h30.063v-7.02h-30.063v7.02z" fill="#b4b4b5"/><path d="M95.63 476.886c26.638 3.804 55.563 5.896 85.8 5.896 31.7 0 61.95-2.294 89.626-6.457 0 0 49.25-121.56 22.787-148.852-16.075-16.573-78.45 7.272-108.225 7.272-31.65 0-95.662-24.245-112.462-7.207C46.382 354.686 95.63 476.886 95.63 476.886" fill="#fff"/><path d="M206.818 361.13l-10.375-18.776c8.988-.84 18.263-2.708 27.363-5.54-2.425 6.086-5.113 12.952-7.8 19.992-5.375 2.753-9.188 4.324-9.188 4.324M154.38 361.354s-1.237-.463-3.3-1.364c-3.362-8.874-6.787-17.614-9.75-25.03 8.963 3.174 18.226 5.41 27.288 6.678l-14.237 19.716" fill="#bcb8b7"/><g clip-path="url(#q)" transform="matrix(1.25,0,0,-1.25,-1181.6443,1569.0375) scale(0.1,0.1)"><path d="M10723 9114.04s74.1 175.45 86.3 233.94c18.9 91.1 38.2 364.38 38.2 364.38.5 2.09 2.2 3.65 4.5 3.91l52.6 6.16c1 1.2 2.5 2.12 4.2 2.12h.1l.6-.14 6.2-.78 6.2.76.6.02c1.2 0 2.5-.45 3.4-1.23l.7-.84 52.7-6.07c2.3-.26 4-1.82 4.5-3.91 0 0 70.1-272.26 88.3-364.25 11.5-58.05 36.2-234.07 36.2-234.07.3-1.52-.2-3.1-1.3-4.25l-200.3-194.56c-1-.99-182.4 194.56-182.4 194.56-1.1 1.19-1.6 2.73-1.3 4.25" fill="url(#r)"/></g><g clip-path="url(#s)" transform="matrix(1.25,0,0,-1.25,-1181.6443,1569.0375) scale(0.1,0.1)"><path d="M11050.1 9836.17l18.3-56.91s-61.7-70.75-62.5-76.23c-.8-5.49-18.3-4.77-18.3-4.77h-143.4s-17.2-.72-18.1 4.77c-.7 5.48-62.3 76.05-62.3 76.05l19.2 57.5c54.9-.7 208.8-.88 267.1-.41" fill="url(#t)"/></g><path d="M183.568 324.327c24.15-.3 46.5-2.045 65.2-4.86l.2 10.877s-12.612 17.432-40.412 27.17l-24.988-33.187M115.068 318.862c18.738 3.057 41.5 5.007 66.238 5.427l-25.563 33.387c-28.125-9.708-40.887-27.333-40.887-27.333s.075-4.298.212-11.482" fill="#fff"/><g clip-path="url(#u)" transform="matrix(1.25,0,0,-1.25,-1181.6443,1569.0375) scale(0.1,0.1)"><path d="M10118.8 8506.07c-30.1 0-60.7.51-91.8 1.55 0 0 2.3 39.8 6.1 95.24 6 86.84 16 212.06 27.5 282.88l-7.6-56.34 338.1 28.08-7.1 55.37-322.6-22.41c.5 3.04 1 5.97 1.6 8.78 2.3 12.38-1.9 39.68-9.8 78.27-37.5 182.59-160.22 618-90.79 923.29 23.4 102.92 176.89 133.02 323.29 139.62 84.6-72.71 188.6-128.99 298.1-167.77 23.7-59.34 51.1-129.26 78-200.25 65.3-171.95 127.4-350.15 125.2-399.33 0 .4.1.59.4.59 7.9 0 126.7-185.05 126.7-185.05s1-2.16 2.6-6.19c-13.8-33.86-79.8-214.79 20.8-348.47-8.6-15.73-19.5-30.2-33.3-42.94-.4-.32-.7-.63-1-.95-22.7-20.71-52.2-40.35-87.7-58.54-114-58.34-290.4-101.8-504.5-118.24-61.2-4.7-125.4-7.19-192.2-7.19" fill="url(#v)"/></g><g clip-path="url(#w)" transform="matrix(1.25,0,0,-1.25,-1181.6443,1569.0375) scale(0.1,0.1)"><path d="M10532.2 10085.6l-111.9-35.8s-88.2-285.14-94.5-312.22l204-15.72-116.5-120.18s428.2-409.3 500-510.78l-381.1 994.7" fill="url(#x)"/></g><g clip-path="url(#y)" transform="matrix(1.25,0,0,-1.25,-1181.6443,1569.0375) scale(0.1,0.1)"><path d="M10060.6 8885.74l.7 4.69.1.01c-.3-1.54-.5-3.11-.8-4.7" fill="url(#z)"/></g><g clip-path="url(#A)" transform="matrix(1.25,0,0,-1.25,-1181.6443,1569.0375) scale(0.1,0.1)"><path d="M10053 8829.4l7.6 56.34c.3 1.59.5 3.16.8 4.7l322.6 22.41 7.1-55.37-338.1-28.08" fill="url(#B)"/></g><g clip-path="url(#C)" transform="matrix(1.25,0,0,-1.25,-1181.6443,1569.0375) scale(0.1,0.1)"><path d="M11732.1 8506.38c-53.8 0-106.1 1.97-156.7 5.68-208.8 15.33-386.5 60.42-504.4 119.35-37 18.52-68.1 38.4-92.5 59.15-.8.75-1.7 1.5-2.6 2.24-14.9 13.01-27.6 26.8-38.4 41.13-100.6 133.68-34.6 314.61-20.8 348.47 1.5 3.64 2.3 5.59 2.3 5.59s119 185.65 126.9 185.65c.3 0 .4-.2.5-.59-2.4 51.62 66.2 245.33 134.8 424.8 21.5 56.32 43 111.25 62.4 159.93 124 38.6 243.8 99.61 340.2 180.52 134.6-9.9 265.6-43.11 287.1-137.52 84.1-369.82-113.7-930.58-100.5-1001.56.5-2.81 1-5.74 1.5-8.78l-322.6 22.41-7.1-55.37 338.1-28.08-7.6 56.36c18.9-116.01 33.6-378.14 33.6-378.14-25-.84-49.8-1.24-74.2-1.24" fill="url(#D)"/></g><g clip-path="url(#E)" transform="matrix(1.25,0,0,-1.25,-1181.6443,1569.0375) scale(0.1,0.1)"><path d="M11301.1 10085.6l111.9-35.8s88.2-285.14 94.5-312.22l-204-15.72 116.5-120.18s-428.2-409.3-499.9-510.78l381 994.7" fill="url(#F)"/></g><path d="M289.943 458.317c-.037-.198-.062-.393-.1-.585l.013.002.087.583" fill="#fff"/><g clip-path="url(#G)" transform="matrix(1.25,0,0,-1.25,-1181.6443,1569.0375) scale(0.1,0.1)"><path d="M11780.3 8829.4l-338.1 28.08 7.1 55.37 322.6-22.41c.3-1.53.5-3.09.8-4.68l7.6-56.36" fill="url(#H)"/></g><g clip-path="url(#I)" transform="matrix(1.25,0,0,-1.25,-1181.6443,1569.0375) scale(0.1,0.1)"><path d="M10939.2 9809.4c-44.4 0-90.4 3.29-137.1 9.8-72.5 10.13-146.6 28.03-218.3 53.43-109.5 38.78-213.5 95.06-298.1 167.77-122.2 105-204.1 244.3-204.1 414.8-19.2-21.8-42.7-36.1-69.6-40.5-5.7-.9-11.2-1.3-16.6-1.3-89.72 0-138.03 126-172.11 288.5-36.12 172.1-42.58 320 57.87 336.3 5.87 1 11.77 1.5 17.7 1.5 22.55 0 45.37-6.8 67.52-19.4 16.4 536.2 142.92 1080.4 972.82 1080.4 790.7 0 959.7-547.3 973.1-1086.3 25.1 16.3 51.4 25.3 77.2 25.3 5.9 0 11.8-.5 17.7-1.5 100.4-16.3 108.3-164.2 72.2-336.3-34.1-162.5-95.1-288.5-186.3-288.5-5.5 0-11 .4-16.7 1.3-30.1 4.9-55.9 22.2-76.3 48.6 0-173.2-87.3-316.9-216.3-425-96.4-80.91-216.2-141.92-340.2-180.52-72.8-22.65-147-37.59-218.9-44.31-29-2.7-57.5-4.07-85.5-4.07m737.9 1013.5c-80.1 0-144.9-35.7-145.4-80.4-.5-45.3 65.1-82.7 146.6-83.6 1-.1 2-.1 3-.1 80.1 0 144.8 35.7 145.3 80.5.5 45.3-65.1 82.7-146.5 83.6h-3m-1460.1 0c-80.1 0-144.9-35.7-145.4-80.4-.5-45.3 65.1-82.7 146.6-83.6 1-.1 2-.1 3-.1 80.1 0 144.9 35.7 145.3 80.5.5 45.3-65.1 82.7-146.5 83.6h-3" fill="url(#J)"/></g><path d="M64.556 201.7c-15.652-9.138-21.182 38.937 8.65 45.95-5.547-33.15-8.65-45.95-8.65-45.95" fill="#dba18d"/><path d="M55.43 229.475c.188 1 .414 1.975.657 2.925-1.655-2.875-2.975-6.425-3.72-10.375-2.045-10.863 1.026-20.563 6.862-21.65 1.768-.338 3.588.162 5.326 1.325-7.628 1.812-11.705 14.087-9.127 27.775" fill="#5e333a"/><path d="M319.83 229.475c-.187 1-.424 1.975-.662 2.925 1.663-2.875 2.975-6.425 3.725-10.375 2.038-10.863-1.025-20.563-6.862-21.65-1.774-.338-3.587.162-5.324 1.325 7.625 1.812 11.7 14.087 9.125 27.775" fill="#a67444"/><g clip-path="url(#K)" transform="matrix(1.25,0,0,-1.25,-1181.6443,1569.0375) scale(0.1,0.1)"><path d="M11681.3 10658.8c-1 0-2 0-3 .1-81.5.9-147.1 38.3-146.6 83.6.5 44.7 65.3 80.4 145.4 80.4h3c81.4-.9 147-38.3 146.5-83.6-.5-44.8-65.2-80.5-145.3-80.5" fill="url(#L)"/></g><g clip-path="url(#M)" transform="matrix(1.25,0,0,-1.25,-1181.6443,1569.0375) scale(0.1,0.1)"><path d="M10221.2 10658.8c-1 0-2 0-3 .1-81.5.9-147.1 38.3-146.6 83.6.5 44.7 65.3 80.4 145.4 80.4h3c81.4-.9 147-38.3 146.5-83.6-.4-44.8-65.2-80.5-145.3-80.5" fill="url(#N)"/></g><path d="M114.368 161.6c-.775 3.537 12.775 3.187 27.05 9.112 14.263 5.925 23.075 15.638 24.613 12.363 5.213-11.063-3.35-23.2-17.624-29.125-14.263-5.925-31.6-3.375-34.038 7.65" fill="#dba18d"/><g clip-path="url(#O)" transform="matrix(1.25,0,0,-1.25,-1181.6443,1569.0375) scale(0.1,0.1)"><path d="M10381.3 11292.1c-22.8-52 107-13.2 220.3-62.7 113.3-49.6 167.1-168.9 189.9-116.8 22.7 52-32 176.8-145.4 226.4-113.2 49.5-242.1 5.2-264.8-46.9" fill="url(#P)"/></g><path d="M260.356 161.6c.775 3.537-12.775 3.187-27.05 9.112-14.263 5.925-23.075 15.638-24.613 12.363-5.212-11.063 3.35-23.2 17.625-29.125 14.263-5.925 31.6-3.375 34.038 7.65" fill="#dba18d"/><g clip-path="url(#Q)" transform="matrix(1.25,0,0,-1.25,-1181.6443,1569.0375) scale(0.1,0.1)"><path d="M11522.8 11292.1c22.8-52-107-13.2-220.3-62.7-113.2-49.6-167.1-168.9-189.9-116.8-22.7 52 32.1 176.8 145.4 226.4 113.2 49.5 242.1 5.2 264.8-46.9" fill="url(#R)"/></g><path d="M159.506 196.075c0 11.425-9.263 20.687-20.688 20.687-11.425 0-20.7-9.262-20.7-20.687 0-11.438 9.275-20.7 20.7-20.7 11.425 0 20.688 9.262 20.688 20.7M257.668 196.075c0 11.425-9.262 20.687-20.7 20.687-11.425 0-20.687-9.262-20.687-20.687 0-11.438 9.263-20.7 20.688-20.7 11.438 0 20.7 9.262 20.7 20.7" fill="#fff"/><g clip-path="url(#S)" transform="matrix(1.25,0,0,-1.25,-1181.6443,1569.0375) scale(0.1,0.1)"><path d="M10686.6 10983.7c0-65.3-52.9-118.2-118.2-118.2-65.3 0-118.3 52.9-118.3 118.2 0 65.3 53 118.2 118.3 118.2s118.2-52.9 118.2-118.2" fill="url(#T)"/></g><path d="M151.206 192.487c0 4.113-3.338 7.438-7.45 7.438-4.113 0-7.438-3.325-7.438-7.438 0-4.112 3.325-7.437 7.438-7.437 4.112 0 7.45 3.325 7.45 7.437" fill="#fff"/><g clip-path="url(#U)" transform="matrix(1.25,0,0,-1.25,-1181.6443,1569.0375) scale(0.1,0.1)"><path d="M11467.2 10983.7c0-65.3-53-118.2-118.3-118.2s-118.2 52.9-118.2 118.2c0 65.3 52.9 118.2 118.2 118.2 65.3 0 118.3-52.9 118.3-118.2" fill="url(#V)"/></g><path d="M249.73 192.487c0 4.113-3.337 7.438-7.437 7.438-4.112 0-7.45-3.325-7.45-7.438 0-4.112 3.338-7.437 7.45-7.437 4.1 0 7.438 3.325 7.438 7.437" fill="#fff"/><path d="M190.756 216.837c-14.388-2.975-26.363 2.5-29.45 12.425-3.088 9.938 9.725 13.65 21.812 15.05-22.55-6.612-8.6-28.962 7.638-27.475" fill="#dba18d"/><g clip-path="url(#W)" transform="matrix(1.25,0,0,-1.25,-1181.6443,1569.0375) scale(0.1,0.1)"><path d="M12141.2 11664.2c-36.7 145.6-88.9 244.6-132 307.1-42.7 62.1-101.3 107.3-101.3 107.3s29.4 20.5 112.2 13.2c-90.4 48.1-167.5-5.9-167.5-5.9l-160.9-291.9s80.4-83.3 62.1-291.7c-4.3-48.5 6.1-79.5 12.9-92.2 11.4-21.2 21.5-42.5 30.6-63.8 7.1-16.6 49-59 55.3-94.9 8.9-49.9 17.1-122.4 15-212.6-4.4-180.3-12-223.6-12-223.6l30.5 38.5s-1.1 72.4 18.4 130.2c12.9 34.1 35.1 55.7 74.8 50.8 7.3 225.9 183.8 456 161.9 629.5" fill="url(#X)"/></g><g clip-path="url(#Y)" transform="matrix(1.25,0,0,-1.25,-1181.6443,1569.0375) scale(0.1,0.1)"><path d="M9752.54 11664.2c36.69 145.6 88.93 244.6 131.94 307.1 42.78 62.1 101.37 107.3 101.37 107.3s-29.44 20.5-112.21 13.2c90.42 48.1 167.56 24.1 167.56 24.1l99-203s-41.3-117.3-19.8-385c8.8-110.2-72.9-240.6-79.3-276.5-8.8-49.9-17.1-122.4-14.9-212.6 4.4-180.3 12-223.6 12-223.6l-30.5 38.5s1 72.4-18.43 130.2c-12.9 34.1-43.85 56.1-74.96 49.9-7.31 225.8-183.69 456.9-161.77 630.4" fill="url(#Z)"/></g><g clip-path="url(#aa)" transform="matrix(1.25,0,0,-1.25,-1181.6443,1569.0375) scale(0.1,0.1)"><path d="M9795.87 12552.3s146.24-239.4 830.23-140.5c684 98.9 905.7 192.6 1165.2-265.4-13.2 113.7-115.5 236.4-115.5 236.4s135.1-82.9 176.8-296.9c-20.7-113.1-160.9-291.9-160.9-291.9s-52.2 87.4-290.2 1c-89-32.3-243.2-212.5-544.7-279.5-662.5-1-1188.31 292.7-1060.93 1036.8" fill="url(#ab)"/></g><g clip-path="url(#ac)" transform="matrix(1.25,0,0,-1.25,-1181.6443,1569.0375) scale(0.1,0.1)"><path d="M10680.2 12357.9s111.8 10 245.2 29.2c99.4 14.2 211.3 37.8 295.3 43.1 196.8 12.4 348.7-52.3 453.3-211.7-99.6 67.2-189.3 77.2-189.3 77.2s99.6-65.8 164.4-162.4c-87.2 22.9-186.8 30.4-186.8 30.4l107.1-52.3-137-19.5s112.1 4.5 211.7-45.3c-144.4 5-224.2-27.3-224.2-27.3s92.2-.1 164.4-32.4c-121.1 5.8-247.7-22.7-347.7-54.5-111.8-35.5-240-89-310.7-102.4-87.3-16.6-206.5-32.3-302.9-20 129.5 27.4 306.3 119.6 306.3 119.6h-159.4l168.2 60.4s-208-18.1-369.9 29.3c276.4 22.3 381.4 62.2 381.4 62.2l-294.2 10.4s211.1 58.1 294.2 121.6c-164.5 1-346.5 34.9-346.5 34.9s248 20.8 346.5 79.7c-143.4-7-269.4 29.8-269.4 29.8" fill="url(#ad)"/></g><g clip-path="url(#ae)" transform="matrix(1.25,0,0,-1.25,-1181.6443,1569.0375) scale(0.1,0.1)"><path d="M10721.7 7221.33c0 41.54-1.7 147.03-19.4 229.33-186.6 54.75-326.9 18.56-337.1-43.73-69.2-44.12-206-121.15-157.7-187.26l514.2 1.66" fill="url(#af)"/></g><g clip-path="url(#ag)" transform="matrix(1.25,0,0,-1.25,-1181.6443,1569.0375) scale(0.1,0.1)"><path d="M10711.7 7221.33c-12.3 126.68-56.5 209.76-80.6 231.37-72.8 31.44-187.7 35.76-245.2 8.28 0 0-13.2-25.34-30.7-54.05-69.2-44.12-206-121.15-157.6-187.26l514.1 1.66" fill="url(#ah)"/></g><g clip-path="url(#ai)" transform="matrix(1.25,0,0,-1.25,-1181.6443,1569.0375) scale(0.1,0.1)"><path d="M10735.3 7201.04c0-12.45-10.1-22.52-22.5-22.52h-516.5c-12.4 0-22.5 10.07-22.5 22.52 0 12.44 10.1 22.53 22.5 22.53h516.5c12.4 0 22.5-10.09 22.5-22.53" fill="url(#aj)"/></g><g clip-path="url(#ak)" transform="matrix(1.25,0,0,-1.25,-1181.6443,1569.0375) scale(0.1,0.1)"><path d="M10627.4 7413.14c-3.2 12.86-7.2 25.38-10.9 37.97-20.6 7.64-43.4 13.89-68 18.15-63.8 11.05-123.1 6.11-160.6-10.47-5.6-12.44-10.9-25.02-15.7-37.72 35.6 22.44 105.9 22.76 178.5 10.18 30-5.2 56.3-14.71 78.6-26.49-1.2 5.63-1.2 5.63-1.9 8.38" fill="url(#al)"/></g><g clip-path="url(#am)" transform="matrix(1.25,0,0,-1.25,-1181.6443,1569.0375) scale(0.1,0.1)"><path d="M10632 7399.37c-20.5 7.66-73.2 19.5-97.8 23.74-63.7 11.05-128.3 7.12-165.9-9.44l-19.8-19.78c35.6 22.42 217.6 12.09 293.4-29.67 2.4 6.31-9.9 35.15-9.9 35.15" fill="url(#an)"/></g><g clip-path="url(#ao)" transform="matrix(1.25,0,0,-1.25,-1181.6443,1569.0375) scale(0.1,0.1)"><path d="M11171 7221.33c0 41.54 1.7 147.03 19.4 229.33 186.6 54.75 327 18.56 337.1-43.73 69.2-44.12 206-121.15 157.7-187.26l-514.2 1.66" fill="url(#ap)"/></g><g clip-path="url(#aq)" transform="matrix(1.25,0,0,-1.25,-1181.6443,1569.0375) scale(0.1,0.1)"><path d="M11181 7221.33c12.3 126.68 56.5 209.76 80.6 231.37 72.8 31.44 187.7 35.76 245.2 8.28 0 0 13.2-25.34 30.7-54.05 69.2-44.12 206-121.15 157.6-187.26l-514.1 1.66" fill="url(#ar)"/></g><g clip-path="url(#as)" transform="matrix(1.25,0,0,-1.25,-1181.6443,1569.0375) scale(0.1,0.1)"><path d="M11157.4 7201.04c0-12.45 10.1-22.52 22.5-22.52h516.5c12.4 0 22.5 10.07 22.5 22.52 0 12.44-10.1 22.53-22.5 22.53h-516.5c-12.4 0-22.5-10.09-22.5-22.53" fill="url(#at)"/></g><g clip-path="url(#au)" transform="matrix(1.25,0,0,-1.25,-1181.6443,1569.0375) scale(0.1,0.1)"><path d="M11265.3 7413.14c3.2 12.86 7.2 25.38 10.9 37.97 20.6 7.64 43.4 13.89 68 18.15 63.8 11.05 123.1 6.11 160.7-10.47 5.5-12.44 10.8-25.02 15.6-37.72-35.6 22.44-105.9 22.76-178.5 10.18-30-5.2-56.3-14.71-78.6-26.49 1.2 5.63 1.2 5.63 1.9 8.38" fill="url(#av)"/></g><g clip-path="url(#aw)" transform="matrix(1.25,0,0,-1.25,-1181.6443,1569.0375) scale(0.1,0.1)"><path d="M11260.7 7399.37c20.5 7.66 73.2 19.5 97.8 23.74 63.7 11.05 128.3 7.12 165.9-9.44l19.8-19.78c-35.6 22.42-217.6 12.09-293.4-29.67-2.4 6.31 9.9 35.15 9.9 35.15" fill="url(#ax)"/></g><path d="M159.506 196.075c0 11.425-9.263 20.687-20.688 20.687-11.425 0-20.7-9.262-20.7-20.687 0-11.438 9.275-20.7 20.7-20.7 11.425 0 20.688 9.262 20.688 20.7M257.668 196.075c0 11.425-9.262 20.687-20.7 20.687-11.425 0-20.687-9.262-20.687-20.687 0-11.438 9.263-20.7 20.688-20.7 11.438 0 20.7 9.262 20.7 20.7" fill="#fff"/><g clip-path="url(#ay)" transform="matrix(1.25,0,0,-1.25,-1181.6443,1569.0375) scale(0.1,0.1)"><path d="M10686.6 10983.7c0-65.3-52.9-118.2-118.2-118.2-65.3 0-118.3 52.9-118.3 118.2 0 65.3 53 118.2 118.3 118.2s118.2-52.9 118.2-118.2" fill="url(#az)"/></g><path d="M151.206 192.487c0 4.113-3.338 7.438-7.45 7.438-4.113 0-7.438-3.325-7.438-7.438 0-4.112 3.325-7.437 7.438-7.437 4.112 0 7.45 3.325 7.45 7.437" fill="#fff"/><g clip-path="url(#aA)" transform="matrix(1.25,0,0,-1.25,-1181.6443,1569.0375) scale(0.1,0.1)"><path d="M11467.2 10983.7c0-65.3-53-118.2-118.3-118.2s-118.2 52.9-118.2 118.2c0 65.3 52.9 118.2 118.2 118.2 65.3 0 118.3-52.9 118.3-118.2" fill="url(#aB)"/></g><path d="M249.73 192.487c0 4.113-3.337 7.438-7.437 7.438-4.112 0-7.45-3.325-7.45-7.438 0-4.112 3.338-7.437 7.45-7.437 4.1 0 7.438 3.325 7.438 7.437" fill="#fff"/><path d="M184.23 261.662c-1.537 0-3.024.025-4.45.075-10.762.413-36.387 2.888-41.912 17.213-.687 1.775-.012 3.85 1.525 4.637 1.525.788 3.313 0 3.988-1.762 2.788-7.213 17.15-12.338 36.6-13.063 23.8-.9 47.026 5.175 50.713 13.263.775 1.712 2.613 2.375 4.088 1.462 1.476-.9 2.038-3.025 1.263-4.737-5.812-12.763-32.65-17.088-51.812-17.088" fill="#f3a28a"/><path d="M132.068 164.2c-18.287-.938-42.625 1.062-47.05 2.412-5.687 1.738-5.85 2.175-6.1 6.275-.25 4.125.463 7.663 3.8 8.725 4.575 1.45 4.613 6.95 7.625 22.738 2.738 14.387 9.4 25.762 38.075 27.825 1.25.087 2.475.137 3.65.15v-4.013C119.08 228.287 104.63 223.85 99.48 215c-7.337-12.588-9.15-38.013.25-43.313 4.1-2.3 17.988-3.862 32.338-3.237v-4.25zm54.725 8.225c-6.337.125-32.512-6.538-51.025-7.988-1.2-.1-2.425-.175-3.7-.237v4.25c14.938.662 30.388 3.7 35.938 10.737 9.137 11.613-5.588 39.925-19.538 46.2-4.362 1.975-10.212 2.95-16.4 2.925v4.013c25.313.35 34.05-15.65 36.963-20.963 5.413-9.912 3.763-23.6 17.963-23.6 14.213 0 12.8 13.45 18.238 23.363 2.9 5.312 11.413 21.537 36.688 21.2v-4.013c-6.175.025-12.025-.95-16.4-2.925-13.962-6.275-28.675-34.587-19.537-46.2 5.55-7.037 21.013-10.075 35.938-10.737v-4.25c-1.275.062-2.5.137-3.7.237-16.562 1.288-36.512 7.663-51.425 7.988m55.125 59.9c1.175-.013 2.4-.063 3.663-.15 28.676-2.063 35.338-13.438 38.076-27.825 3-15.788 3.05-21.288 7.612-22.738 3.35-1.062 4.063-4.6 3.8-8.725-.25-4.1-.412-4.537-6.087-6.275-4.437-1.35-28.774-3.362-47.062-2.412v4.25c14.363-.625 28.238.937 32.35 3.237 9.4 5.3 7.575 30.725.238 43.313-5.15 8.85-19.6 13.287-32.588 13.312v4.013" fill-rule="evenodd"/><g clip-path="url(#aC)" transform="matrix(1.25,0,0,-1.25,-1181.6443,1569.0375) scale(0.1,0.1)"><path d="M12391.3 9509.71c-42.6 54.96 96.7 503.39 103.4 582.19 6.7 78.8 227.4 1 192.9-165.26-32.2-113.32-49.5-180.02-49.5-180.02s-11.7-177.07-55.9-264.33c-44.2-87.31-72.1-125.51-190.9 27.42" fill="url(#aD)"/></g><g clip-path="url(#aE)" transform="matrix(1.25,0,0,-1.25,-1181.6443,1569.0375) scale(0.1,0.1)"><path d="M12565.5 9384.06c-29.7 50.61 135.7 410.26 149.8 475.39 14.2 65.1 190.2-23.92 143.3-159.16-39.3-91.19-61.1-145.09-61.1-145.09s-29-146.72-75.5-214.85c-46.4-68.12-73.8-97.03-156.5 43.71" fill="url(#aF)"/></g><g clip-path="url(#aG)" transform="matrix(1.25,0,0,-1.25,-1181.6443,1569.0375) scale(0.1,0.1)"><path d="M12116.6 9562.6c38.7 63.42 147.9 627.3 165.1 753.6 134.9-8.9 279.2-109.7 203.6-306.1-75.6-196.45-42.5-325.41-140.1-569.61-97.7-244.08-228.6 122.11-228.6 122.11" fill="url(#aH)"/></g><g clip-path="url(#aI)" transform="matrix(1.25,0,0,-1.25,-1181.6443,1569.0375) scale(0.1,0.1)"><path d="M12283.9 8769.51c-276.6 3.24-404 423.89-356 805.02 48.1 381.11 56.3 734.67 52.5 753.07-3.8 18.5 266.7 51 251.8-183.5-12.8-156.85-39-205.68-39-205.68s3.4-235.43-18.9-302.74c73.4-4.66 653.3-8.06 556.9-558.24-50.7-289.37-240-310.41-447.3-307.93" fill="url(#aJ)"/></g><g clip-path="url(#aK)" transform="matrix(1.25,0,0,-1.25,-1181.6443,1569.0375) scale(0.1,0.1)"><path d="M12283.9 8769.51c-147.5.45-398.7 70.39-510.3 408.2-111.5 337.82-180.7 376.2-247.4 445.77-13.5 121.93 164.9 320.89 362.9 62.22 138.5-193.2 53.2-300.43 53.2-300.43s713.7-69.53 341.6-615.76" fill="url(#aL)"/></g></svg>
